# xmcd
# Copyright (C) 1995-1998 Ti Kan
#
# Track frame offsets:
#       150
#       22370
#       42792
#       60660
#       82615
#       103790
#       121730
#       134940
#       151007
#       169930
#
# Disc length: 2757 seconds
#
# Revision: 0
# Processed by: cddbd v1.4b42PL1 Copyright (c) Steve Scherf et al.
# Submitted via: CD-Transfer v1.0
#
DISCID=7e0ac30a
DTITLE=Madtrix - Spiral
DYEAR=2001
DGENRE=
TTITLE0=Tryeness
TTITLE1=Spiral
TTITLE2=Embrace The Moon
TTITLE3=Sunken Dreams
TTITLE4=I Feel Mad
TTITLE5=Contradictions Inside
TTITLE6=Star
TTITLE7=What A World
TTITLE8=Curious Minds
TTITLE9=Soulrelated
EXTD=
EXTT0=
EXTT1=
EXTT2=
EXTT3=
EXTT4=
EXTT5=
EXTT6=
EXTT7=
EXTT8=
EXTT9=
PLAYORDER=
